<svg width="30" height="16" viewBox="0 0 30 16" fill="none" xmlns="http://www.w3.org/2000/svg">
<path fill-rule="evenodd" clip-rule="evenodd" d="M29.6611 0.335671C29.7685 0.441805 29.8537 0.567889 29.9119 0.706699C29.9701 0.84551 30 0.994321 30 1.14461C30 1.29489 29.9701 1.44371 29.9119 1.58252C29.8537 1.72133 29.7685 1.84741 29.6611 1.95354L15.8165 15.6643C15.7094 15.7707 15.582 15.8552 15.4419 15.9128C15.3017 15.9704 15.1514 16 14.9997 16C14.8479 16 14.6977 15.9704 14.5575 15.9128C14.4174 15.8552 14.29 15.7707 14.1829 15.6643L0.338339 1.95354C0.121704 1.739 -6.32949e-08 1.44802 -5.00324e-08 1.14461C-3.67699e-08 0.841196 0.121704 0.550213 0.338339 0.33567C0.554976 0.121126 0.848797 0.000596936 1.15517 0.000596949C1.46154 0.000596962 1.75536 0.121126 1.97199 0.33567L14.9997 13.2398L28.0274 0.335671C28.1346 0.229268 28.2619 0.144848 28.402 0.0872481C28.5422 0.0296481 28.6925 -5.71538e-08 28.8442 -5.05205e-08C28.996 -4.38871e-08 29.1462 0.0296481 29.2864 0.0872482C29.4266 0.144848 29.5539 0.229268 29.6611 0.335671Z" fill="#BB4DFF"/>
</svg>
